<svg id="Capa_1" enable-background="new 0 0 497.232 497.232" height="512" viewBox="0 0 497.232 497.232" width="512" xmlns="http://www.w3.org/2000/svg"><path d="m481.383 388.227h-465.534c-8.753 0-15.849-7.096-15.849-15.849v-247.524c0-8.753 7.096-15.849 15.849-15.849h465.534c8.753 0 15.849 7.096 15.849 15.849v247.524c0 8.753-7.096 15.849-15.849 15.849z" fill="#e5eef8"/><path d="m270.663 342.19c-119.747 0-216.821-97.074-216.821-216.821v-16.365h-37.993c-8.753 0-15.849 7.096-15.849 15.849v247.525c0 8.753 7.096 15.849 15.849 15.849h465.533c8.753 0 15.849-7.096 15.849-15.849v-30.188z" fill="#d5e2f3"/><path d="m481.383 109.004h-465.534c-8.753 0-15.849 7.097-15.849 15.85v28.02h497.231v-28.02c.001-8.753-7.095-15.85-15.848-15.85z" fill="#fd6773"/><path d="m53.842 109.004h-37.993c-8.753 0-15.849 7.097-15.849 15.85v28.02h55.572c-1.14-9.007-1.729-18.187-1.729-27.504v-16.366z" fill="#fc4d5a"/><circle cx="32.528" cy="130.954" fill="#f93442" r="8.337"/><circle cx="66.256" cy="130.954" fill="#fcb64d" r="8.337"/><circle cx="99.984" cy="130.954" fill="#05f2a7" r="8.337"/><path d="m248.616 350.12c-22.826 0-45.826-10.165-68.361-30.213-16.522-14.697-28.619-31.068-34.359-39.519-6.308-9.287-6.308-21.287 0-30.574 5.739-8.449 17.835-24.82 34.358-39.52 22.536-20.048 45.536-30.213 68.362-30.213 22.825 0 45.826 10.165 68.361 30.213 16.522 14.698 28.619 31.069 34.359 39.52 6.307 9.287 6.307 21.287.002 30.571-5.742 8.453-17.84 24.824-34.361 39.522-22.536 20.048-45.536 30.213-68.361 30.213z" fill="#d5e2f3"/><path d="m334.792 261.052c1.66 2.443 1.66 5.655 0 8.098-9.654 14.212-44.575 60.97-86.176 60.97s-76.523-46.758-86.176-60.97c-1.66-2.443-1.66-5.655 0-8.098 9.654-14.212 44.575-60.97 86.176-60.97s76.522 46.758 86.176 60.97z" fill="#e5eef8"/><circle cx="248.616" cy="265.101" fill="#65daf9" r="45.263"/><path d="m238.756 256.35c0-14.589 6.909-27.557 17.626-35.834-2.525-.437-5.117-.677-7.766-.677-24.998 0-45.263 20.265-45.263 45.263s20.265 45.263 45.263 45.263c10.409 0 19.991-3.522 27.637-9.429-21.295-3.685-37.497-22.238-37.497-44.586z" fill="#1acff8"/><circle cx="248.616" cy="265.101" fill="#138fcd" r="20.893"/><path d="m113.141 218.51c-4.142 0-7.5-3.357-7.5-7.5v-26.313c0-7.325 5.959-13.284 13.284-13.284h26.666c4.142 0 7.5 3.357 7.5 7.5s-3.358 7.5-7.5 7.5h-24.949v24.597c-.001 4.143-3.359 7.5-7.501 7.5z" fill="#d5e2f3"/><path d="m384.09 218.51c-4.143 0-7.5-3.357-7.5-7.5v-24.597h-24.949c-4.143 0-7.5-3.357-7.5-7.5s3.357-7.5 7.5-7.5h26.665c7.325 0 13.284 5.959 13.284 13.284v26.313c0 4.143-3.357 7.5-7.5 7.5z" fill="#d5e2f3"/><path d="m145.59 358.789h-26.666c-7.325 0-13.284-5.959-13.284-13.284v-26.313c0-4.143 3.358-7.5 7.5-7.5s7.5 3.357 7.5 7.5v24.598h24.949c4.142 0 7.5 3.357 7.5 7.5s-3.357 7.499-7.499 7.499z" fill="#b4ceeb"/><path d="m378.306 358.789h-26.665c-4.143 0-7.5-3.357-7.5-7.5s3.357-7.5 7.5-7.5h24.949v-24.598c0-4.143 3.357-7.5 7.5-7.5s7.5 3.357 7.5 7.5v26.313c0 7.326-5.959 13.285-13.284 13.285z" fill="#d5e2f3"/><path d="m376.59 342.19v1.599h-24.949c-4.143 0-7.5 3.357-7.5 7.5s3.357 7.5 7.5 7.5h26.665c7.325 0 13.284-5.959 13.284-13.284v-3.314h-15z" fill="#b4ceeb"/><g fill="#65daf9"><path d="m120.983 257.601h-52.381l4.798-4.798c2.929-2.929 2.929-7.678 0-10.606-2.929-2.929-7.678-2.93-10.607-.001l-17.603 17.603c-2.929 2.929-2.928 7.678 0 10.606l17.289 17.288c1.464 1.464 3.384 2.196 5.303 2.196s3.839-.732 5.303-2.196c2.929-2.93 2.929-7.678 0-10.607l-4.485-4.484h52.381c4.142 0 7.5-3.357 7.5-7.5s-3.355-7.501-7.498-7.501z"/><path d="m452.04 259.798-17.603-17.603c-2.928-2.928-7.677-2.929-10.606.001-2.929 2.929-2.929 7.678.001 10.606l4.798 4.798h-52.382c-4.143 0-7.5 3.357-7.5 7.5s3.357 7.5 7.5 7.5h52.381l-4.485 4.484c-2.929 2.93-2.929 7.678 0 10.607 1.465 1.464 3.385 2.196 5.304 2.196s3.839-.732 5.304-2.196l17.288-17.288c2.928-2.927 2.928-7.676 0-10.605z"/></g></svg>